<svg width="68" height="68" fill="none" xmlns="http://www.w3.org/2000/svg"><path fill-rule="evenodd" clip-rule="evenodd" d="M36 18a2 2 0 0 0-4 0v2a8 8 0 0 0 0 16v8a4.002 4.002 0 0 1-3.773-2.666 2 2 0 0 0-3.771 1.332A8.003 8.003 0 0 0 32 48v2a2 2 0 0 0 4 0v-2a8 8 0 0 0 0-16v-8a4.002 4.002 0 0 1 3.773 2.666 2 2 0 0 0 3.771-1.332A8.003 8.003 0 0 0 36 20v-2Zm-4 6a4 4 0 1 0 0 8v-8Zm4 12v8a4 4 0 1 0 0-8Z" fill="#001A49"/><path clip-rule="evenodd" d="M34 66c17.673 0 32-14.327 32-32C66 16.327 51.673 2 34 2 16.327 2 2 16.327 2 34c0 17.673 14.327 32 32 32Z" stroke="#001A49" stroke-width="4"/></svg>